<svg width="78" height="14" viewBox="0 0 78 14" fill="none" xmlns="http://www.w3.org/2000/svg">
    <path fill-rule="evenodd" clip-rule="evenodd" d="M44.8346 2.55258V0.790084C44.8346 0.523346 45.0372 0.344396 45.2803 0.344396H53.171C53.4242 0.344396 53.6268 0.526723 53.6268 0.790084V2.29935C53.6234 2.55258 53.4107 2.88347 53.0326 3.40681L48.9437 9.24465C50.4631 9.20751 52.0669 9.43373 53.4445 10.2103C53.7551 10.3859 53.8395 10.6425 53.8632 10.8957V12.7764C53.8632 13.033 53.5795 13.3335 53.2824 13.1782C50.8548 11.9053 47.6303 11.7668 44.946 13.1917C44.6725 13.3403 44.3855 13.0431 44.3855 12.7865V11.0004C44.3855 10.7134 44.3889 10.2238 44.6759 9.78825L49.413 2.99489H45.2904C45.0372 2.99489 44.8346 2.81594 44.8346 2.55258Z" fill="#4C4C4D"/>
    <path fill-rule="evenodd" clip-rule="evenodd" d="M16.0506 13.5496H13.6499C13.4203 13.5327 13.238 13.3605 13.2211 13.1411V0.820498C13.2211 0.574019 13.4271 0.378185 13.6837 0.378185H15.9223C16.1552 0.388307 16.3409 0.567264 16.3578 0.790108V2.40066H16.4017C16.9858 0.844131 18.0832 0.1182 19.5621 0.1182C21.0646 0.1182 22.0032 0.844131 22.6785 2.40066C23.2592 0.844131 24.5794 0.1182 25.9941 0.1182C27.0003 0.1182 28.101 0.5335 28.7729 1.46539C29.5326 2.50195 29.3773 4.00784 29.3773 5.32802L29.3739 13.1039C29.3739 13.3504 29.168 13.5496 28.9114 13.5496H26.5141C26.2744 13.5327 26.0819 13.3403 26.0819 13.1039V6.57392C26.0819 6.05395 26.1292 4.75741 26.0144 4.26445C25.8355 3.43722 25.2986 3.20425 24.6031 3.20425C24.0223 3.20425 23.4146 3.59254 23.1681 4.2138C22.9216 4.83506 22.9452 5.875 22.9452 6.57392V13.1039C22.9452 13.3504 22.7393 13.5496 22.4827 13.5496H20.0854C19.8423 13.5327 19.6532 13.3403 19.6532 13.1039L19.6498 6.57392C19.6498 5.19972 19.8761 3.17724 18.171 3.17724C16.4456 3.17724 16.5131 5.14907 16.5131 6.57392V13.1039C16.5131 13.3504 16.3072 13.5496 16.0506 13.5496Z" fill="#4C4C4D"/>
    <path fill-rule="evenodd" clip-rule="evenodd" d="M60.4201 0.1182C63.9822 0.1182 65.9101 3.17724 65.9101 7.06688C65.9101 10.8248 63.7796 13.8062 60.4201 13.8062C56.9221 13.8062 55.0178 10.7472 55.0178 6.9352C55.0178 3.09958 56.9457 0.1182 60.4201 0.1182ZM60.4403 2.63364C58.6711 2.63364 58.5597 5.0444 58.5597 6.54691C58.5597 8.05279 58.536 11.2671 60.4201 11.2671C62.2805 11.2671 62.3683 8.67406 62.3683 7.09389C62.3683 6.05395 62.3244 4.81143 62.0104 3.82551C61.7403 2.9679 61.2034 2.63364 60.4403 2.63364Z" fill="#4C4C4D"/>
    <path fill-rule="evenodd" clip-rule="evenodd" d="M70.5292 13.5496H68.1387C67.899 13.5327 67.7065 13.3403 67.7065 13.1039L67.7031 0.779978C67.7234 0.553758 67.9226 0.378185 68.1657 0.378185H70.3908C70.6001 0.388307 70.7723 0.530124 70.8196 0.72258V2.60662H70.8635C71.5354 0.921789 72.4774 0.1182 74.1352 0.1182C75.2123 0.1182 76.2624 0.506489 76.9376 1.57006C77.5657 2.55598 77.5657 4.2138 77.5657 5.40568V13.1613C77.5386 13.3774 77.3394 13.5496 77.1031 13.5496H74.6957C74.4762 13.5327 74.2939 13.3707 74.2703 13.1613V6.46925C74.2703 5.12206 74.4256 3.15023 72.7678 3.15023C72.1836 3.15023 71.6468 3.54189 71.3801 4.13614C71.0424 4.88909 70.9985 5.63865 70.9985 6.46925V13.1039C70.9951 13.3504 70.7858 13.5496 70.5292 13.5496Z" fill="#4C4C4D"/>
    <path fill-rule="evenodd" clip-rule="evenodd" d="M38.5443 7.66448C38.5443 8.59975 38.568 9.37971 38.0953 10.2103C37.7137 10.8856 37.106 11.3009 36.4341 11.3009C35.5123 11.3009 34.9721 10.5986 34.9721 9.56203C34.9721 7.51592 36.8055 7.14452 38.5443 7.14452V7.66448ZM40.9652 13.5158C40.8066 13.6576 40.577 13.6678 40.398 13.5732C39.6012 12.9114 39.456 12.6042 39.0204 11.9728C37.7036 13.3166 36.7683 13.7184 35.0633 13.7184C33.0408 13.7184 31.4707 12.4725 31.4707 9.97734C31.4707 8.02914 32.5242 6.7022 34.0301 6.05393C35.3334 5.47994 37.1533 5.37865 38.5443 5.21995V4.90932C38.5443 4.33871 38.5882 3.66342 38.2506 3.17046C37.9602 2.72815 37.3997 2.54582 36.9034 2.54582C35.9884 2.54582 35.1747 3.01515 34.9755 3.98756C34.9349 4.20365 34.7763 4.41636 34.5568 4.42649L32.2304 4.17664C32.0346 4.13275 31.8151 3.97405 31.8725 3.67355C32.406 0.850861 34.9586 0 37.241 0C38.4093 0 39.9354 0.310632 40.8572 1.19525C42.0254 2.28584 41.914 3.74108 41.914 5.32462V9.0657C41.914 10.1901 42.38 10.683 42.8189 11.2908C42.9708 11.5069 43.0046 11.7668 42.8088 11.9289C42.3192 12.3375 41.4481 13.0972 40.9686 13.5226L40.9652 13.5158Z" fill="#4C4C4D"/>
    <path fill-rule="evenodd" clip-rule="evenodd" d="M7.07263 7.66448C7.07263 8.59975 7.09626 9.3797 6.62356 10.2103C6.24203 10.8856 5.63765 11.3009 4.96236 11.3009C4.0406 11.3009 3.50375 10.5986 3.50375 9.56203C3.50375 7.51592 5.33715 7.14451 7.07263 7.14451V7.66448ZM9.49352 13.5158C9.33483 13.6576 9.10523 13.6678 8.92628 13.5732C8.12945 12.9114 7.98764 12.6042 7.5487 11.9728C6.2319 13.3166 5.30001 13.7184 3.59154 13.7184C1.57243 13.7184 -0.000976562 12.4725 -0.000976562 9.97733C-0.000976562 8.02913 1.05584 6.7022 2.55835 6.05393C3.86165 5.47993 5.68154 5.37864 7.07263 5.21995V4.90932C7.07263 4.3387 7.11652 3.66342 6.78226 3.17046C6.4885 2.72815 5.92802 2.54582 5.43506 2.54582C4.52005 2.54582 3.70296 3.01515 3.50375 3.98755C3.46323 4.20365 3.30454 4.41636 3.08845 4.42649L0.758718 4.17663C0.562886 4.13274 0.346794 3.97405 0.400817 3.67355C0.937668 0.850861 3.48687 0 5.76933 0C6.93757 0 8.46371 0.310631 9.38547 1.19525C10.5537 2.28584 10.4423 3.74108 10.4423 5.32462V9.06569C10.4423 10.19 10.9082 10.683 11.3472 11.2908C11.5025 11.5068 11.5363 11.7668 11.3404 11.9289C10.8508 12.3374 9.97972 13.0971 9.50027 13.5226L9.49352 13.5158Z" fill="#4C4C4D"/>
</svg>
