<svg width="79" height="34" viewBox="0 0 79 34" fill="none" xmlns="http://www.w3.org/2000/svg">
    <g clip-path="url(#clip0_14_196248)">
        <path d="M10.8117 26.9584C9.62893 27.1661 8.4253 27.2284 7.18021 27.3942L3.38251 16.2713V27.8716C2.1997 27.9961 1.12062 28.1621 0 28.3281V7.07813H3.15438L7.4707 19.1352V7.07813H10.8117V26.9584ZM17.3486 14.8601C18.6354 14.8601 20.6068 14.7978 21.7896 14.7978V18.1181C20.3161 18.1181 18.5938 18.1181 17.3486 18.1804V23.1194C19.2994 22.9949 21.2501 22.8288 23.2214 22.7665V25.9621L14.0282 26.6886V7.07813H23.2214V10.3984H17.3486V14.8601ZM35.5688 10.3985H32.124V25.6719C31.0034 25.6719 29.8828 25.6719 28.8039 25.7133V10.3985H25.3591V7.07812H35.569L35.5688 10.3985ZM40.9643 14.6319H45.509V17.9521H40.9643V25.4852H37.706V7.07813H46.9824V10.3984H40.9643V14.6319ZM52.3779 22.5798C54.2664 22.6212 56.1754 22.7667 58.0224 22.8703V26.1492C55.055 25.9623 52.0874 25.7757 49.0576 25.7133V7.07813H52.3779V22.5798ZM60.8239 26.3774C61.8823 26.4398 63.0029 26.5021 64.0819 26.6264V7.07813H60.8239V26.3774ZM78.6292 7.07813L74.4165 17.1844L78.6292 28.3281C77.3839 28.1621 76.1389 27.9338 74.8937 27.7263L72.5073 21.5838L70.0796 27.2284C68.8757 27.0207 67.7136 26.9584 66.5102 26.7924L70.7851 17.0597L66.9251 7.07813H70.4943L72.6733 12.6604L74.9976 7.07813H78.6292V7.07813Z" fill="#4C4C4D"/>
    </g>
    <defs>
        <clipPath id="clip0_14_196248">
            <rect width="78.625" height="34" fill="white"/>
        </clipPath>
    </defs>
</svg>
