<svg width="23" height="23" viewBox="0 0 23 23" fill="none" xmlns="http://www.w3.org/2000/svg">
    <path fill-rule="evenodd" clip-rule="evenodd" d="M0.366117 0.366117C0.854272 -0.122039 1.64573 -0.122039 2.13388 0.366117L11.25 9.48223L20.3661 0.366118C20.8543 -0.122038 21.6457 -0.122037 22.1339 0.366118C22.622 0.854273 22.622 1.64573 22.1339 2.13388L13.0178 11.25L22.1339 20.3661C22.622 20.8543 22.622 21.6457 22.1339 22.1339C21.6457 22.622 20.8543 22.622 20.3661 22.1339L11.25 13.0178L2.13388 22.1339C1.64573 22.622 0.854272 22.622 0.366117 22.1339C-0.122039 21.6457 -0.122039 20.8543 0.366117 20.3661L9.48223 11.25L0.366117 2.13388C-0.122039 1.64573 -0.122039 0.854272 0.366117 0.366117Z" fill="#1A1A1A"/>
</svg>
