<svg width="26" height="17" viewBox="0 0 26 17" fill="none" xmlns="http://www.w3.org/2000/svg">
    <path fill-rule="evenodd" clip-rule="evenodd" d="M0 1.0625C0 0.475697 0.475697 0 1.0625 0H24.4375C25.0243 0 25.5 0.475697 25.5 1.0625C25.5 1.6493 25.0243 2.125 24.4375 2.125H1.0625C0.475697 2.125 0 1.6493 0 1.0625ZM0 8.5C0 7.9132 0.475697 7.4375 1.0625 7.4375H24.4375C25.0243 7.4375 25.5 7.9132 25.5 8.5C25.5 9.0868 25.0243 9.5625 24.4375 9.5625H1.0625C0.475697 9.5625 0 9.0868 0 8.5ZM11.6875 15.9375C11.6875 15.3507 12.1632 14.875 12.75 14.875H24.4375C25.0243 14.875 25.5 15.3507 25.5 15.9375C25.5 16.5243 25.0243 17 24.4375 17H12.75C12.1632 17 11.6875 16.5243 11.6875 15.9375Z" fill="#262626"/>
</svg>
