<svg width="21" height="21" viewBox="0 0 21 21" fill="none" xmlns="http://www.w3.org/2000/svg">
    <path fill-rule="evenodd" clip-rule="evenodd" d="M0 3C0 1.34315 1.34315 0 3 0H4.37163C5.232 0 5.98197 0.585557 6.19064 1.42025L7.29644 5.84343C7.47941 6.5753 7.20594 7.34555 6.60242 7.79818L5.3088 8.7684C5.17447 8.86915 5.14527 9.01668 5.183 9.11969C6.31851 12.2195 8.78051 14.6815 11.8803 15.817C11.9833 15.8547 12.1309 15.8255 12.2316 15.6912L13.2018 14.3976C13.6545 13.7941 14.4247 13.5206 15.1566 13.7036L19.5798 14.8094C20.4144 15.018 21 15.768 21 16.6284V18C21 19.6569 19.6569 21 18 21H15.75C7.05151 21 0 13.9485 0 5.25V3Z" fill="#262626"/>
</svg>
